<svg xmlns="http://www.w3.org/2000/svg" shape-rendering="geometricPrecision" text-rendering="geometricPrecision" image-rendering="optimizeQuality" fill-rule="evenodd" clip-rule="evenodd" viewBox="0 0 500 511.56">
  <path fill-rule="nonzero" d="M117.91 0h201.68c3.93 0 7.44 1.83 9.72 4.67l114.28 123.67c2.21 2.37 3.27 5.4 3.27 8.41l.06 310c0 35.43-29.4 64.81-64.8 64.81H117.91c-35.57 0-64.81-29.24-64.81-64.81V64.8C53.1 29.13 82.23 0 117.91 0zM325.5 37.15v52.94c2.4 31.34 23.57 42.99 52.93 43.5l36.16-.04-89.09-96.4zm96.5 121.3l-43.77-.04c-42.59-.68-74.12-21.97-77.54-66.54l-.09-66.95H117.91c-21.93 0-39.89 17.96-39.89 39.88v381.95c0 21.82 18.07 39.89 39.89 39.89h264.21c21.71 0 39.88-18.15 39.88-39.89v-288.3z"/>
  <path fill="red" d="M28.04 194.61h443.92c15.43 0 28.04 12.63 28.04 28.04v188.54c0 15.4-12.63 28.04-28.04 28.04H28.04C12.64 439.23 0 426.61 0 411.19V222.65c0-15.43 12.62-28.04 28.04-28.04z"/>
  <path fill="#fff" fill-rule="nonzero" d="M89.21 371.87l5.42-31.93c11.87 2.97 22.54 4.45 32.02 4.45 9.48 0 17.13-.38 22.93-1.16v-9.67l-17.41-1.55c-15.74-1.42-26.54-5.19-32.41-11.32-5.87-6.13-8.8-15.19-8.8-27.18 0-16.51 3.57-27.87 10.73-34.06 7.16-6.19 19.32-9.29 36.47-9.29 17.16 0 32.64 1.62 46.44 4.84l-4.83 30.96c-12-1.94-21.61-2.9-28.83-2.9-7.23 0-13.36.32-18.39.96v9.49l13.94 1.35c16.89 1.68 28.57 5.71 35.02 12.09 6.45 6.39 9.67 15.26 9.67 26.61 0 8.13-1.09 14.99-3.29 20.61-2.19 5.61-4.8 9.86-7.83 12.77-3.04 2.9-7.33 5.12-12.87 6.67-5.55 1.55-10.42 2.48-14.61 2.81-4.19.32-9.77.48-16.74.48-16.77 0-32.31-1.68-46.63-5.03zm184.21-2.32L256.97 374c-21.67 0-36.25-5.55-43.73-16.64-3.87-5.55-6.58-11.77-8.13-18.67-1.54-6.91-2.32-15.26-2.32-25.06 0-22.06 4.13-38.15 12.38-48.28 8.26-10.12 23.1-15.19 44.51-15.19 21.41 0 36.31 5.1 44.69 15.29 8.39 10.19 12.58 26.25 12.58 48.18 0 16.38-3.42 29.6-10.25 39.66l13.93 8.13-10.06 22.25-37.15-6.77v-7.35zm-29.03-25.74h16.06c5.29 0 9.13-.61 11.51-1.83 2.39-1.23 3.58-4.04 3.58-8.42v-50.31h-16.25c-5.16 0-8.93.61-11.32 1.84-2.38 1.23-3.58 4.03-3.58 8.42v50.3zM410.79 374H333.4V253.07h38.69v89.97h38.7V374z"/>
</svg>
